<svg width="273" height="102" viewBox="0 0 273 102" fill="none" xmlns="http://www.w3.org/2000/svg">
<path d="M44.8884 0.411203C44.3515 0.411642 43.7856 0.412106 43.2552 0.475403C37.0886 0.989804 31.4219 3.60934 27.3863 8.38155C22.9946 13.5749 21.9325 19.0467 21.984 25.6582L10.2356 25.6403C9.70933 25.6398 9.16535 25.6248 8.61368 25.6095C7.08087 25.5671 5.48874 25.523 4.05287 25.7861C3.18694 25.9448 2.43134 26.3659 1.82237 26.9998C0.756171 28.1098 0.730264 29.5117 0.799545 30.948C0.908818 33.2127 1.10332 35.4803 1.29759 37.7453C1.40328 38.9774 1.50899 40.2099 1.60084 41.4404L3.5508 66.6363L4.49957 78.8038C4.54631 79.4044 4.58364 80.011 4.62112 80.6201C4.75511 82.7977 4.89107 85.0071 5.46594 87.0904C6.45907 90.6326 8.42736 93.824 11.1465 96.3032C13.5229 98.461 16.3952 100.001 19.5089 100.784C22.1424 101.419 25.2021 101.347 28.0761 101.28C28.9315 101.26 29.7704 101.24 30.5768 101.239L46.3929 101.235L60.206 101.241C60.9607 101.241 61.7375 101.259 62.5239 101.278C65.0753 101.339 67.7347 101.402 70.1189 100.846C73.4729 100.065 76.8672 98.224 79.3158 95.7961C81.5946 93.5357 83.4152 90.5177 84.2106 87.3995C84.8194 85.0141 84.9721 82.3974 85.1203 79.8594C85.168 79.0412 85.2153 78.2306 85.2773 77.439L86.5737 60.7516L88.1902 40.262C88.2685 39.25 88.3697 38.2272 88.4711 37.2022C88.6909 34.9805 88.9124 32.7421 88.9074 30.5465C88.905 29.196 88.6191 27.9362 87.6514 26.9332C86.9854 26.2422 85.8968 25.9047 84.9755 25.7544C83.5946 25.5293 82.0803 25.5694 80.6154 25.6083C80.0738 25.6226 79.539 25.6368 79.0201 25.6373C75.3253 25.6301 71.6291 25.6432 67.9342 25.6763L67.7754 25.6786C67.8622 18.5982 66.286 12.5225 61.1957 7.34419C56.9424 2.9372 51.0897 0.436792 44.9658 0.411133L44.8884 0.411203ZM67.2805 40.7978L67.4797 40.8093C67.4849 40.8228 67.4899 40.8354 67.4946 40.847C67.4971 40.8532 67.4995 40.8591 67.5019 40.8648C67.5106 40.8859 67.5184 40.9041 67.5253 40.92L67.5337 40.939C67.5701 41.0218 67.5768 41.037 67.575 41.1702C67.5115 49.8522 65.1875 61.0301 59.0257 67.3886C53.3196 73.2768 44.4587 76.1661 36.3781 76.3262C40.1419 69.2471 46.1901 62.5336 52.4289 57.5475C53.3937 56.777 54.4037 56.0805 55.4144 55.3836C56.0651 54.935 56.716 54.4861 57.3554 54.0172C57.9761 53.5617 58.8118 52.9436 58.8998 52.113C58.9805 51.348 58.5736 50.7543 58.0946 50.2079C57.4238 49.819 56.9326 49.6567 56.1665 49.8815C55.0789 50.2008 53.9829 51.0055 52.9938 51.7317C52.7318 51.9241 52.477 52.1111 52.2322 52.282C44.2327 57.9465 37.5856 65.3104 32.7672 73.8458C32.6047 66.9015 34.1861 61.0843 38.445 55.4984C44.8363 47.1156 57.0695 42.189 67.2805 40.7978ZM5.18221 29.9892L84.5478 29.988C84.2661 32.661 84.0837 35.3585 83.9015 38.0516C83.8001 39.552 83.6986 41.0524 83.5801 42.546L81.4431 69.3253L80.644 79.1935C80.6084 79.622 80.5759 80.0526 80.5434 80.4843C80.4152 82.1867 80.2858 83.9048 79.9573 85.5716C79.6201 87.2822 78.9651 88.7692 78.0781 90.2611C77.736 90.7804 77.3645 91.2801 76.9662 91.7579C74.6654 94.5071 70.8887 96.5549 67.3013 96.8262C65.3478 96.9737 63.3379 96.9367 61.3469 96.9001C60.4852 96.8842 59.6267 96.8684 58.7776 96.8677L42.3119 96.8628L29.2092 96.8689C28.5772 96.8692 27.934 96.8825 27.286 96.8959C25.2988 96.937 23.2641 96.9792 21.3542 96.6502C18.8492 96.2128 16.5081 95.1094 14.5777 93.4551C12.2653 91.505 10.6058 88.8939 9.82282 85.9724C9.2872 84.036 9.15364 81.9727 9.0225 79.9468C8.98956 79.4379 8.95677 78.9315 8.91779 78.4299L8.1385 68.3891L5.18221 29.9892ZM69.0429 36.1448L68.9838 36.1511C56.9363 37.5447 43.221 42.4999 35.4337 52.259C30.4285 58.5312 27.694 66.6894 28.5972 74.723C28.7955 76.4871 29.195 78.1733 29.7709 79.8509C29.7057 80.0175 29.6263 80.2173 29.5358 80.4446C28.5471 82.9295 26.2489 88.7056 27.0482 90.4138C27.2794 90.9075 27.7503 91.2386 28.2609 91.4011C28.4713 91.4671 28.6832 91.505 28.9022 91.5306C29.5771 91.4194 30.201 91.2801 30.6073 90.6765C31.0435 90.027 31.4902 88.4671 31.8723 87.1329C32.0543 86.4973 32.2218 85.9127 32.3665 85.502C32.8615 84.0959 33.4235 82.713 33.9848 81.3319L33.9913 81.3158C34.057 81.1541 34.1227 80.9925 34.1883 80.8308C44.1227 80.8602 54.7333 77.7505 61.9203 70.6593C69.9577 62.7274 71.9823 49.9373 71.9982 39.1134C71.9994 38.26 71.9407 37.2473 71.3164 36.5946C70.9327 36.1931 70.3548 36.0721 69.8184 36.084C69.5595 36.0897 69.3007 36.1173 69.0429 36.1448ZM43.9224 4.75203C44.3073 4.7282 44.6934 4.70669 45.0782 4.70938C49.7971 4.7425 54.522 6.85301 57.8381 10.1787C62.3529 14.707 63.2766 19.5123 63.2864 25.6586L45.9971 25.6492L26.5421 25.6734C26.3932 20.3902 27.2441 15.5647 30.7102 11.3931C34.0399 7.38549 38.792 5.21034 43.9224 4.75203Z" fill="#030A06"/>
<path d="M67.4796 40.8091L67.2805 40.7976C57.0694 42.1888 44.8362 47.1154 38.4449 55.4982C34.186 61.0841 32.6047 66.9013 32.7672 73.8456C37.5856 65.3102 44.2326 57.9463 52.2321 52.2818C52.477 52.1109 52.7318 51.9239 52.9938 51.7315C53.9829 51.0053 55.0789 50.2006 56.1665 49.8814C56.9326 49.6565 57.4238 49.8188 58.0946 50.2077C58.5735 50.7541 58.9804 51.3478 58.8998 52.1128C58.8118 52.9435 57.976 53.5615 57.3553 54.017C56.716 54.4859 56.065 54.9348 55.4143 55.3835C54.4036 56.0803 53.3936 56.7768 52.4288 57.5473C46.19 62.5334 40.1418 69.2469 36.378 76.326C44.4587 76.1659 53.3196 73.2766 59.0256 67.3884C65.1875 61.0299 67.5114 49.852 67.575 41.17C67.5767 41.0368 67.5701 41.0217 67.5336 40.9388C67.5249 40.919 67.5142 40.8947 67.5018 40.8646C67.495 40.8481 67.4877 40.8298 67.4796 40.8091ZM68.9838 36.1509L69.0429 36.1446C69.3007 36.1171 69.5595 36.0895 69.8183 36.0838C70.3547 36.0719 70.9326 36.1929 71.3163 36.5944C71.9407 37.2471 71.9993 38.2598 71.9981 39.1133C71.9822 49.9371 69.9576 62.7272 61.9202 70.6592C54.7333 77.7503 44.1227 80.86 34.1882 80.8306C34.1227 80.9923 34.057 81.1539 33.9913 81.3156L33.9847 81.3317C33.4234 82.7128 32.8614 84.0957 32.3664 85.5018C32.2217 85.9126 32.0543 86.497 31.8723 87.1326C31.4902 88.4668 31.0435 90.0268 30.6072 90.6764C30.201 91.28 29.5771 91.4192 28.9021 91.5304C28.6832 91.5048 28.4713 91.4669 28.2609 91.4009C27.7503 91.2384 27.2794 90.9073 27.0482 90.4137C26.2489 88.7054 28.547 82.9294 29.5358 80.4444C29.6262 80.2171 29.7057 80.0173 29.7709 79.8507C29.195 78.1731 28.7954 76.4869 28.5971 74.7228C27.6939 66.6892 30.4285 58.531 35.4337 52.2589C43.2209 42.4998 56.9363 37.5445 68.9838 36.1509Z" fill="#030A06"/>
<path d="M69.0433 36.1446L68.9843 36.1509C56.9368 37.5445 43.2214 42.4998 35.4342 52.2589C30.429 58.531 27.6944 66.6892 28.5976 74.7228C28.7959 76.4869 29.1955 78.1731 29.7713 79.8507C29.7062 80.0173 29.6267 80.2171 29.5363 80.4444C28.5475 82.9294 26.2494 88.7054 27.0487 90.4137C27.2799 90.9073 27.7508 91.2384 28.2614 91.4009C28.4718 91.4669 28.6837 91.5048 28.9026 91.5304C29.5776 91.4192 30.2014 91.28 30.6077 90.6764C31.044 90.0268 31.4905 88.4677 31.8726 87.1335C32.0547 86.4976 32.2222 85.9127 32.3669 85.5018C32.8619 84.0957 33.4239 82.7129 33.9852 81.3317C33.9874 81.3263 33.9896 81.321 33.9918 81.3156C34.0575 81.1539 34.1232 80.9923 34.1887 80.8306C44.1232 80.86 54.7338 77.7503 61.9207 70.6592C69.9581 62.7272 71.9827 49.9371 71.9986 39.1133C71.9998 38.2598 71.9412 37.2471 71.3168 36.5944C70.9331 36.1929 70.3552 36.0719 69.8188 36.0838C69.56 36.0895 69.3012 36.1171 69.0433 36.1446ZM67.281 40.7976L67.4801 40.8091C67.4882 40.8298 67.4955 40.8481 67.5023 40.8646C67.5148 40.895 67.5254 40.9189 67.5341 40.9388C67.5706 41.0217 67.5772 41.0368 67.5754 41.17C67.5119 49.852 65.1879 61.0299 59.0261 67.3884C53.32 73.2766 44.4591 76.1659 36.3785 76.326C40.1423 69.2469 46.1905 62.5334 52.4293 57.5473C53.3941 56.7768 54.4041 56.0803 55.4148 55.3835C56.0655 54.9348 56.7165 54.4859 57.3558 54.017C57.9765 53.5615 58.8123 52.9435 58.9003 52.1128C58.9809 51.3478 58.574 50.7541 58.0951 50.2077C57.4243 49.8188 56.9331 49.6565 56.167 49.8814C55.0794 50.2006 53.9834 51.0053 52.9942 51.7315C52.7322 51.9239 52.4775 52.1109 52.2326 52.2818C44.2331 57.9463 37.5861 65.3102 32.7677 73.8456C32.6052 66.9013 34.1865 61.0841 38.4454 55.4982C44.8367 47.1154 57.0699 42.1888 67.281 40.7976Z" fill="#030A06"/>
<path d="M224.168 65.5657C223.866 57.0321 216.706 50.3592 208.173 50.6591C199.638 50.9577 192.963 58.1213 193.264 66.6548C193.565 75.1898 200.729 81.864 209.262 81.5627C217.796 81.2601 224.469 74.0979 224.168 65.5657ZM208.71 55.2981C211.2 55.3989 213.217 55.9974 215.115 57.6782C217.376 59.6794 218.637 62.5707 218.802 65.5656C218.968 68.5633 218.025 71.6018 215.984 73.8348C214.12 75.8755 211.794 76.7888 209.069 76.9251C206.582 76.8992 204.531 76.5121 202.569 74.8803C200.278 72.9746 198.983 70.1528 198.739 67.2083C198.486 64.1465 199.288 60.9812 201.321 58.6324C203.337 56.3041 205.718 55.5025 208.71 55.2981Z" fill="#030A06"/>
<path d="M181.197 64.285C180.18 55.7991 172.469 49.7506 163.986 50.7839C155.525 51.8145 149.496 59.5002 150.51 67.9629C151.525 76.4256 159.199 82.4686 167.664 81.4707C176.151 80.4688 182.214 72.7695 181.197 64.285ZM164.481 55.4228C166.956 55.2211 169.199 55.4815 171.289 56.9196C173.636 58.5336 175.112 61.0269 175.6 63.8119C176.154 66.9745 175.634 70.3566 173.731 72.9917C172.065 75.2996 169.984 76.4446 167.211 76.8863C164.678 77.0158 162.441 76.8618 160.308 75.3527C158.007 73.7319 156.457 71.2522 156.008 68.474C155.491 65.4096 156.11 61.883 157.939 59.3338C159.547 57.0941 161.792 55.8522 164.481 55.4228Z" fill="#030A06"/>
<path d="M256.582 50.6409C256.505 50.6436 256.43 50.6491 256.354 50.6586C252.462 51.118 248.957 53.0019 246.51 56.0909C243.718 59.6175 242.76 64.0888 243.311 68.511C243.762 72.3947 245.75 75.9363 248.829 78.3478C252.477 81.1819 257.102 81.9017 261.609 81.2855C264.217 80.9283 268.136 79.6797 269.803 77.5094C270.272 76.9001 270.508 76.1558 270.4 75.387C270.324 74.8471 270.087 74.3305 269.642 73.9992C269.131 73.6189 268.45 73.5712 267.843 73.6898C267 73.8542 266.244 74.3756 265.527 74.8701C265.376 74.9744 265.226 75.0774 265.078 75.1757C261.931 76.8115 258.44 77.5803 254.977 76.4584C252.514 75.6473 250.479 73.8793 249.334 71.5509C248.736 70.3609 248.439 69.0972 248.175 67.8008H263.03C263.648 67.8015 264.311 67.8228 264.993 67.8447C266.754 67.9011 268.64 67.9616 270.194 67.6835C270.637 67.6045 271.06 67.3673 271.382 67.0538C272.112 66.3422 272.242 65.3348 272.22 64.3628C272.137 60.6413 270.389 56.9702 267.682 54.4524C264.556 51.5447 260.786 50.4514 256.582 50.6409ZM257.04 55.2908C259.294 55.0263 261.568 55.6016 263.426 56.9089C265.647 58.4875 266.814 60.7286 267.281 63.3663C265.398 63.3891 263.513 63.3839 261.628 63.3788C260.686 63.3762 259.743 63.3736 258.802 63.3745L248.355 63.3881C248.833 61.7809 249.388 60.321 250.416 58.9741C252.072 56.8053 254.365 55.6425 257.04 55.2908Z" fill="#030A06"/>
<path d="M173.848 39.5926C179.424 39.4603 185.03 39.583 190.609 39.5735C193.787 39.568 197.846 39.3104 200.931 39.628C201.427 39.6798 201.823 39.8202 202.2 40.1501C202.737 40.6191 203.095 41.3266 203.114 42.0436C203.13 42.6911 202.733 43.4341 202.266 43.8689C201.909 44.1988 201.483 44.331 201.013 44.4074C199.729 44.6146 198.311 44.4933 197.008 44.4919L190.086 44.4796L190.083 70.1704C190.093 72.3351 190.367 77.0572 190.041 78.8989C189.938 79.4769 189.729 80.0535 189.33 80.4966C188.902 80.9723 188.312 81.2122 187.677 81.2259C187.012 81.2409 186.363 81.095 185.883 80.6111C185.319 80.0453 185.111 79.2124 185.042 78.4395C184.914 77.0136 185.031 75.5045 185.047 74.0718C185.072 71.9521 185.053 69.8309 185.051 67.7112L185.068 44.4755C182.765 44.4864 174.796 44.8531 173.165 44.1129C172.568 43.843 172.194 43.4259 171.978 42.8056C171.747 42.1458 171.852 41.4424 172.186 40.8372C172.576 40.1283 173.097 39.8243 173.848 39.5926Z" fill="#030A06"/>
<path d="M137.377 50.6596C139.448 50.5424 141.472 50.6746 143.483 51.213C145.606 51.7815 148.854 53.0343 149.952 55.0491C150.254 55.6039 150.411 56.2678 150.198 56.8812C149.98 57.5069 149.386 57.9854 148.787 58.2308C147.041 58.9465 144.854 56.5404 143.211 55.9215C140.54 54.9141 137.327 54.97 134.727 56.1833C132.339 57.2984 130.622 59.4099 129.733 61.8623C128.701 64.7087 128.614 68.4207 129.924 71.1948C131.139 73.7657 133.374 75.5624 136.025 76.4989C139.059 77.5718 142.219 77.0006 145.054 75.6415C145.933 75.1657 146.73 74.5318 147.731 74.3246C148.249 74.2183 148.759 74.2742 149.2 74.5796C149.743 74.9558 150.182 75.7001 150.254 76.3572C150.322 76.9733 150.082 77.5404 149.7 78.0134C148.041 80.0691 144.35 81.1024 141.837 81.4105C137.477 81.9449 132.935 81.0711 129.445 78.2888C126.165 75.7246 124.078 71.9295 123.669 67.7868C123.237 63.659 124.448 59.5272 127.039 56.2855C129.665 53.0561 133.249 51.1013 137.377 50.6596Z" fill="#030A06"/>
<path d="M230.509 42.8605C230.596 42.8564 230.682 42.8523 230.768 42.8496C231.541 42.825 232.318 43.0323 232.864 43.6021C234.168 44.9639 233.65 49.5524 233.635 51.4309C235.409 51.4418 239.728 50.8897 241.059 52.073C241.54 52.5024 241.736 53.0967 241.737 53.7306C241.74 54.3454 241.581 54.9343 241.124 55.3678C239.881 56.5456 235.392 56.0821 233.632 56.0712C233.648 59.8445 233.138 71.4753 234.301 74.338C236.181 78.9674 240.256 74.8956 242.58 75.9902C243.077 76.2247 243.485 76.7195 243.669 77.2348C243.931 77.9682 243.698 78.6239 243.396 79.2973C243.345 79.3545 243.293 79.4104 243.241 79.4663C241.837 80.929 239.199 81.2807 237.262 81.308C235.014 81.3407 232.889 80.959 231.229 79.2959C230.029 78.0936 229.283 76.4441 228.918 74.8028C228.354 72.2673 228.587 69.4605 228.588 66.8745L228.595 56.0753C227.232 56.0739 225.867 56.0644 224.504 56.0426C224.279 55.9022 224.06 55.7577 223.862 55.5791C223.323 55.0938 223.078 54.3699 223.059 53.657C223.043 53.0599 223.225 52.471 223.671 52.058C224.772 51.0383 227.195 51.4036 228.595 51.4282C228.591 49.4638 228.16 45.9413 228.902 44.2128C229.231 43.4453 229.77 43.1672 230.509 42.8605Z" fill="#030A06"/>
<path fill-rule="evenodd" clip-rule="evenodd" d="M122.356 42.1236C120.007 41.8927 108.51 41.9744 104.522 42.0331C103.788 42.0439 103.108 42.094 102.511 42.1379C102.003 42.1754 101.554 42.2084 101.184 42.209C101.184 42.209 99.5971 42.5814 99.0824 43.2965C98.7459 43.7647 98.6309 44.3588 98.5506 44.918C98.1245 47.8879 97.8751 50.918 97.6266 53.9381C97.4958 55.5276 97.3652 57.1143 97.2092 58.6879L95.6966 73.9545C95.6565 74.3625 95.5867 74.9196 95.5074 75.5521C95.2512 77.5969 94.8963 80.4294 95.1259 81.5568C95.2529 82.1816 95.584 82.6977 96.1365 83.0233C96.6816 83.3447 97.2993 83.5275 97.9199 83.6328L97.9256 83.6328C99.2082 83.6302 101.142 83.6502 103.303 83.6726C107.784 83.7189 119.178 83.7754 121.827 83.6614C122.356 83.6382 122.916 83.5933 123.414 83.4051C124.082 83.1516 124.632 82.6677 124.896 81.9942C125.163 81.3167 125.104 80.5574 124.802 79.9031C124.498 79.2433 124.088 78.8916 123.4 78.6708H100.499C100.881 75.2991 101.223 71.9234 101.524 68.5437L101.794 65.7965L101.82 65.5242C101.999 65.5265 102.235 65.53 102.515 65.5342C104.847 65.5694 116.2 65.6512 117.646 65.4355C118.177 65.3565 118.673 65.2229 119.062 64.8316C119.564 64.3245 119.773 63.6238 119.732 62.9204C119.696 62.3233 119.432 61.6731 118.978 61.271C118.675 61.0038 118.3 60.8307 117.899 60.7748C116.547 60.5781 106.454 60.6314 103.906 60.6641C103.223 60.6728 102.655 60.6801 102.288 60.6807L103.449 46.9847H115.807C116.438 46.9851 117.094 47.0061 117.76 47.0275C119.373 47.0791 121.045 47.1327 122.545 46.9002C123.078 46.8184 123.536 46.6357 123.923 46.2472C124.397 45.7715 124.656 45.0517 124.619 44.3837C124.582 43.7021 124.215 43.0532 123.682 42.6347C123.276 42.3158 122.865 42.1726 122.356 42.1236Z" fill="#030A06"/>
</svg>
