<svg xmlns="http://www.w3.org/2000/svg" aria-hidden="true" style="position:absolute;width:0;height:0;overflow:hidden"><symbol viewBox="0 0 32 33" id="icon-instagram"><path fill-rule="evenodd" clip-rule="evenodd" d="M21.3333 4.67871H10.6667C6.98477 4.67871 4 7.66348 4 11.3454V22.012C4 25.6939 6.98477 28.6787 10.6667 28.6787H21.3333C25.0152 28.6787 28 25.6939 28 22.012V11.3454C28 7.66348 25.0152 4.67871 21.3333 4.67871ZM25.6667 22.012C25.6593 24.4022 23.7235 26.338 21.3333 26.3454H10.6667C8.27647 26.338 6.34065 24.4022 6.33333 22.012V11.3454C6.34065 8.95518 8.27647 7.01936 10.6667 7.01204H21.3333C23.7235 7.01936 25.6593 8.95518 25.6667 11.3454V22.012ZM22.3333 11.6787C23.0697 11.6787 23.6667 11.0818 23.6667 10.3454C23.6667 9.609 23.0697 9.01204 22.3333 9.01204C21.5969 9.01204 21 9.609 21 10.3454C21 11.0818 21.5969 11.6787 22.3333 11.6787ZM16 10.6787C12.6863 10.6787 10 13.365 10 16.6787C10 19.9924 12.6863 22.6787 16 22.6787C19.3137 22.6787 22 19.9924 22 16.6787C22.0036 15.0863 21.3725 13.5581 20.2465 12.4322C19.1205 11.3062 17.5924 10.6752 16 10.6787ZM12.3333 16.6787C12.3333 18.7038 13.9749 20.3454 16 20.3454C18.0251 20.3454 19.6667 18.7038 19.6667 16.6787C19.6667 14.6536 18.0251 13.012 16 13.012C13.9749 13.012 12.3333 14.6536 12.3333 16.6787Z" fill="currentColor"></path></symbol><symbol viewBox="0 0 32 33" id="icon-linkedIn"><path fill-rule="evenodd" clip-rule="evenodd" d="M6 4.67871C4.89543 4.67871 4 5.57414 4 6.67871V26.6787C4 27.7832 4.89543 28.6787 6 28.6787H26C27.1045 28.6787 28 27.7832 28 26.6787V6.67871C28 5.57414 27.1045 4.67871 26 4.67871H6ZM11.361 10.0157C11.3685 11.2907 10.4141 12.0763 9.28164 12.0707C8.21476 12.065 7.28476 11.2157 7.29039 10.0176C7.29601 8.89067 8.18664 7.98504 9.34352 8.0113C10.5173 8.03755 11.3685 8.89818 11.361 10.0157ZM16.3729 13.6944H13.0129H13.0111V25.1075H16.5623V24.8412C16.5623 24.3347 16.5619 23.828 16.5615 23.3212C16.5604 21.9695 16.5592 20.6163 16.5661 19.265C16.568 18.9368 16.5829 18.5956 16.6673 18.2824C16.9841 17.1124 18.0361 16.3568 19.2099 16.5426C19.9636 16.6606 20.4623 17.0975 20.6723 17.8082C20.8017 18.2524 20.8599 18.7306 20.8655 19.1938C20.8807 20.5906 20.8785 21.9874 20.8764 23.3843C20.8756 23.8774 20.8748 24.3707 20.8748 24.8638V25.1056H24.4373V24.8319C24.4373 24.2292 24.4371 23.6267 24.4367 23.0242C24.436 21.5182 24.4352 20.0122 24.4392 18.5056C24.4411 17.825 24.368 17.1538 24.2011 16.4956C23.9517 15.5168 23.4361 14.7068 22.598 14.1219C22.0036 13.7056 21.3511 13.4375 20.6217 13.4075C20.5387 13.4041 20.4549 13.3995 20.3708 13.395C19.9979 13.3748 19.6188 13.3544 19.2623 13.4263C18.2423 13.6306 17.3461 14.0975 16.6692 14.9206C16.5905 15.015 16.5136 15.1108 16.3988 15.2539L16.3729 15.2863V13.6944ZM7.57552 25.1112H11.1099V13.7018H7.57552V25.1112Z" fill="currentColor"></path></symbol><symbol viewBox="0 0 32 32" id="icon-menu"><path d="M5.33334 8H26.6667V10.6667H5.33334V8ZM5.33334 14.6667H26.6667V17.3333H5.33334V14.6667ZM5.33334 21.3333H26.6667V24H5.33334V21.3333Z" fill="currentColor"></path></symbol><symbol viewBox="0 0 20 20" id="icon-star"><path d="M9.07068 1.30082C9.41442 0.484361 10.5852 0.484362 10.9289 1.30082L12.9577 6.11971C13.1027 6.46391 13.4304 6.69909 13.8065 6.72888L19.0725 7.14595C19.9647 7.21662 20.3265 8.31661 19.6467 8.89188L15.6346 12.2871C15.348 12.5297 15.2228 12.9103 15.3104 13.2728L16.5361 18.3495C16.7438 19.2096 15.7967 19.8895 15.0328 19.4286L10.5243 16.708C10.2023 16.5137 9.7973 16.5137 9.47528 16.708L4.96679 19.4286C4.20291 19.8895 3.25576 19.2096 3.46343 18.3495L4.68922 13.2728C4.77678 12.9103 4.65162 12.5297 4.36506 12.2871L0.352864 8.89188C-0.326916 8.31661 0.0348695 7.21662 0.927093 7.14595L6.19316 6.72888C6.5693 6.69909 6.89696 6.46391 7.04187 6.11971L9.07068 1.30082Z" fill="currentColor"></path></symbol><symbol viewBox="0 0 32 32" id="icon-close"><path d="M21.5893 8.45898L15.932 14.115L10.276 8.45898L8.39062 10.3443L14.0466 16.0003L8.39062 21.6563L10.276 23.5417L15.932 17.8856L21.5893 23.5417L23.4746 21.6563L17.8186 16.0003L23.4746 10.3443L21.5893 8.45898Z" fill="currentColor"></path></symbol><symbol viewBox="0 0 32 33" id="icon-youtube"><path d="M28.7911 9.9598C28.6392 9.39634 28.3424 8.88248 27.9303 8.46936C27.5181 8.05625 27.0049 7.75828 26.4418 7.60514C24.3538 7.0318 16.0004 7.02247 16.0004 7.02247C16.0004 7.02247 7.64844 7.01314 5.55911 7.56114C4.99634 7.72133 4.4842 8.02351 4.07186 8.43865C3.65952 8.85379 3.36082 9.36797 3.20444 9.9318C2.65377 12.0198 2.64844 16.3505 2.64844 16.3505C2.64844 16.3505 2.64311 20.7025 3.18977 22.7691C3.49644 23.9118 4.39644 24.8145 5.54044 25.1225C7.64977 25.6958 15.9804 25.7051 15.9804 25.7051C15.9804 25.7051 24.3338 25.7145 26.4218 25.1678C26.9851 25.0149 27.4988 24.7177 27.912 24.3054C28.3252 23.8931 28.6236 23.3801 28.7778 22.8171C29.3298 20.7305 29.3338 16.4011 29.3338 16.4011C29.3338 16.4011 29.3604 12.0478 28.7911 9.9598ZM13.3284 20.3625L13.3351 12.3625L20.2778 16.3691L13.3284 20.3625Z" fill="currentColor"></path></symbol></svg>